<?xml version="1.0" encoding="UTF-8"?>
<svg id="Capa_2" data-name="Capa 2" xmlns="http://www.w3.org/2000/svg" viewBox="0 0 187.03 187.08">
  <defs>
    <style>
      .cls-1 {
        fill: #fefefe;
      }

      .cls-1, .cls-2 {
        stroke-width: 0px;
      }

      .cls-3 {
        fill: #fff;
        font-family: 'AniMeMatrix-MB_EN', 'AniMe Matrix - MB_EN';
        font-size: 40.42px;
      }

      .cls-2 {
        fill: #a00000;
      }
    </style>
  </defs>
  <g id="Capa_1-2" data-name="Capa 1">
    <g>
      <path class="cls-2" d="m93.57,187.08c-2.65-.26-4.25-1.5-4.58-3.99-.17-1.31-.08-2.66-.08-3.99-.01-5.97-2.2-7.57-8.02-6.14-1.62.4-1.65,1.33-1.65,2.53,0,2.33,0,4.66-.02,6.99-.03,2.78-1.47,4.36-4.23,4.52-2.8.16-4.35-1.48-4.75-4.09-.25-1.63-.31-3.36-.04-4.98.75-4.39-1.24-5.16-5.2-5.06-3.38.08-4.87.78-4.4,4.38.25,1.95.17,4.02-.15,5.97-.39,2.36-1.86,3.82-4.47,3.8-2.62-.02-3.97-1.56-4.38-3.91-.26-1.46-.13-2.99-.13-4.48-.02-5.4-2.59-7.12-7.98-5.64-1.74.47-1.39,1.57-1.41,2.64-.06,2.33.19,4.69-.12,6.98-.37,2.74-1.94,4.64-5.03,4.4-2.8-.22-4.02-2.02-4.13-4.69-.04-.83-.15-1.69-.02-2.49.88-5.09-.54-7.15-6.35-7.07-7.18.11-12.39-6.34-12.29-14.2.04-3.59-1.05-4.74-4.48-4.31-1.8.23-3.66.08-5.48-.06-2.49-.2-3.92-1.61-4.14-4.13-.23-2.6,1.27-4.18,3.52-4.76,1.73-.45,3.67-.51,5.44-.25,4.16.62,5.4-.87,5.19-5.08-.17-3.29-.65-4.97-4.33-4.44-1.79.26-3.67.19-5.48-.02-2.58-.3-4.33-1.63-4.32-4.52,0-2.88,1.78-4.18,4.34-4.52,1.64-.21,3.36-.31,4.98-.04,4.15.68,4.79-1.26,4.8-4.93.01-3.58-.67-5.26-4.59-4.67-1.94.3-4.04.26-5.96-.13-2.33-.47-3.74-2.12-3.58-4.68.16-2.51,1.53-3.99,4.06-4.16,1.66-.11,3.35-.21,4.99-.01,3.67.44,5.15-.52,5.13-4.73-.01-4.26-1.24-5.36-5.32-5.09-3.54.24-8.63,1.49-8.75-4.38-.12-5.91,4.9-4.6,8.53-4.69,4.64-.11,7.46-4.77,5.22-8.77-.63-1.12-1.65-.91-2.59-.92-2.33-.04-4.66.02-6.99-.04-2.54-.07-4.02-1.45-4.27-3.95-.28-2.79,1.24-4.48,3.83-4.95,1.78-.33,3.69-.38,5.47-.09,4.18.68,4.78-1.27,4.81-4.94.03-3.61-.7-5.28-4.62-4.66-1.78.28-3.68.17-5.47-.1-2.6-.39-4.19-1.92-4.04-4.77.14-2.61,1.78-3.87,4.14-4.18,1.64-.22,3.35-.27,4.98-.06,3.74.48,5.06-.66,5.05-4.75,0-4.05-1.27-5.3-5.02-4.72-.98.15-1.99.03-2.99.02-3.33-.02-6.16-.93-6.12-4.88.04-3.75,2.77-4.48,5.9-4.42,1.17.02,2.36-.15,3.49.04,3.75.61,4.73-.85,4.68-4.61-.1-8.36,5.7-14.16,14.09-14.03,3.86.06,5.08-1.08,4.56-4.74-.23-1.63-.05-3.33.03-4.99.13-2.48,1.41-4.06,3.91-4.37,2.81-.36,4.5,1.22,5.08,3.73.41,1.74.44,3.67.19,5.46-.53,3.88.89,4.81,4.8,4.98,4.84.21,4.84-2.09,4.73-5.61-.11-3.47-1.2-8.27,4.26-8.42,5.75-.16,4.8,4.71,4.85,8.43.06,5.13,2.96,7,8.16,5.44,1.73-.52,1.31-1.66,1.34-2.72.06-2.16-.06-4.33.04-6.49.13-2.88,1.54-4.8,4.59-4.79,3.03,0,4.48,1.79,4.46,4.79,0,1,0,2,0,3,0,6.21,1.84,7.56,7.96,6.24,1.63-.35,1.73-1.19,1.72-2.43,0-2.33-.05-4.66.03-6.99.1-3,1.73-4.66,4.72-4.61,2.73.05,4.26,1.64,4.43,4.39.09,1.49.23,3.03,0,4.49-.66,4.11.86,5.16,5.04,5.29,4.9.16,4.8-2.18,4.75-5.67-.05-3.39-1.46-8.26,4.17-8.4,5.87-.14,4.76,4.78,4.82,8.46.08,5.1,3.04,7.03,8.17,5.45,1.69-.52,1.29-1.67,1.33-2.72.08-2.33-.12-4.68.12-6.99.27-2.57,1.65-4.32,4.54-4.31,2.89.01,4.18,1.78,4.49,4.36.19,1.64.24,3.35.03,4.99-.46,3.53.51,4.8,4.47,4.83,4.24.03,5.63-1.15,5.04-5.25-.26-1.78-.24-3.73.24-5.45.61-2.21,2.2-3.73,4.8-3.48,2.52.24,4.34,1.74,4.04,4.15-.85,6.91.67,10.41,8.85,10.77,6.38.29,10.07,6.46,9.95,13.49-.06,3.51.93,4.82,4.43,4.36,1.8-.23,3.66-.08,5.48.05,2.49.18,3.95,1.57,4.18,4.09.24,2.59-1.23,4.17-3.47,4.8-1.55.44-3.29.29-4.95.3-5.32.04-7.12,2.71-5.61,7.99.49,1.7,1.6,1.38,2.67,1.41,2.33.06,4.68-.13,6.99.09,2.58.24,4.35,1.59,4.36,4.47.02,2.88-1.74,4.19-4.3,4.56-1.47.21-3.03.31-4.48.05-4.59-.83-5.58,1.2-5.34,5.43.18,3.05.6,4.62,4.08,4.17,2.12-.27,4.37-.26,6.46.14,2.31.45,3.77,2.08,3.59,4.66-.18,2.49-1.52,4-4.06,4.17-1.66.11-3.35.21-4.99.01-3.68-.44-5.14.53-5.13,4.74.01,4.27,1.24,5.36,5.32,5.08,3.54-.24,8.64-1.49,8.75,4.39.11,5.89-4.91,4.44-8.54,4.74-1.74.15-4.43-1.03-5.02.8-.77,2.41-.36,5.27-.11,7.9.11,1.2,1.57.91,2.51.93,2.33.04,4.66-.02,6.99.04,2.56.06,4.01,1.49,4.25,3.97.28,2.78-1.23,4.44-3.84,4.96-1.45.28-2.98.11-4.48.12-5.08.01-7.59,3.8-5.66,8.41.54,1.29,1.52,1.05,2.45,1.08,2.49.07,5.02-.13,7.48.17,2.6.31,4.2,1.89,4.06,4.74-.13,2.61-1.76,3.88-4.12,4.19-1.64.22-3.35.26-4.98.06-3.7-.46-5.1.59-5.07,4.73.03,4.01,1.2,5.34,5,4.74.97-.15,1.99-.03,2.99-.02,3.33.01,6.16.91,6.14,4.86-.02,3.74-2.74,4.51-5.88,4.45-.67-.01-1.35.09-2-.01-4.38-.69-6.43.3-6.28,5.58.22,7.54-6.06,13.19-13.99,13.04-3.84-.07-5.1,1.03-4.58,4.72.23,1.63.07,3.33-.03,4.99-.17,2.71-1.6,4.31-4.39,4.41-2.86.1-4.24-1.74-4.73-4.21-.31-1.61-.31-3.35-.08-4.98.55-3.85-.83-4.84-4.77-5-4.8-.19-4.88,2.05-4.74,5.59.14,3.66,1.09,8.62-4.74,8.44-5.36-.16-4.3-4.9-4.36-8.42-.09-5.12-3.03-7.03-8.18-5.45-1.72.53-1.28,1.68-1.32,2.73-.07,2.16.06,4.33-.05,6.49-.14,2.88-1.55,4.79-4.61,4.78-3.05,0-4.46-1.82-4.44-4.8,0-1,0-2,0-3,0-6.19-1.85-7.53-7.97-6.24-2.06.43-1.66,1.7-1.7,2.94-.07,2.5.14,5.02-.16,7.48-.31,2.5-2.17,3.56-4.4,3.71Z"/>
      <path class="cls-1" d="m158.96,93.51c0,19.48,0,38.96,0,58.44,0,6.32-.65,7.01-6.75,7.01-39.12,0-78.25,0-117.37,0-6.11,0-6.76-.68-6.76-7,0-38.96,0-77.91,0-116.87,0-6.47.57-7.01,7.25-7.01,38.79,0,77.58,0,116.37,0,6.81,0,7.26.48,7.26,7.5,0,19.31,0,38.62,0,57.94Z"/>
      <path class="cls-2" d="m93.52,149.66c-17.14,0-34.29-.1-51.43.08-3.53.04-4.85-.56-4.83-4.54.18-34.45.17-68.9,0-103.35-.02-3.93,1.24-4.57,4.81-4.56,34.28.13,68.57.16,102.85-.03,4.17-.02,4.82,1.35,4.81,5.06-.13,34.12-.16,68.24.03,102.36.02,4.3-1.32,5.13-5.31,5.07-16.97-.22-33.95-.09-50.93-.09Z"/>
      <text class="cls-3" transform="translate(40.87 106.38)"><tspan x="0" y="0">GPU</tspan></text>
    </g>
  </g>
</svg>