<?xml version="1.0" encoding="UTF-8"?>
<svg id="Capa_2" data-name="Capa 2" xmlns="http://www.w3.org/2000/svg" viewBox="0 0 580.54 784.25">
  <defs>
    <style>
      .cls-1 {
        fill: #0ea5e9;
        stroke-width: 0px;
      }
    </style>
  </defs>
  <g id="Capa_1-2" data-name="Capa 1">
    <g id="LOGO">
      <path class="cls-1" d="m328.75,615.32c-6.09,7.42-27.77,30.69-38.92,40.98,0,0-10.85,10.55-17.39,16.73-91.32,85.4-178.53,127.16-229.7,100.72-69.29-35.79-50.62-185.26,36.69-356.61,3.48,6.16,7.03,12.32,10.65,18.48,4.73,8.04,5.28,17.53,1.63,26.02-52.27,121.35-58.46,221.54-7.51,247.86,37.62,19.44,98.65-5.42,164.77-60.48,7.02-5.94,18.3-15.88,18.3-15.88,45.85-41.95,94.24-96.17,147.72-177.67,8.52-12.99,16.4-26.06,23.95-39.01,2.41,4.62,4.74,9.2,7.01,13.75,5.15,10.33,4.54,22.21-1.71,32.03-1.33,2.09-2.67,4.18-4.02,6.27-35.18,54.52-73.11,104.04-111.47,146.82h0Zm-78.27-448.53c-38.21,42.67-75.99,92.02-111.03,146.33-2.45,3.79-4.86,7.58-7.24,11.37-4.15,6.6-4.56,14.56-1.16,21.5,3.09,6.31,6.32,12.71,9.69,19.17,7.55-12.94,15.53-25.96,23.95-39.01,34-52.68,71.08-99.78,108.22-138.97,7.55-7.48,50.3-47.81,57.79-54.58,66.12-55.06,127.15-79.91,164.77-60.48,50.52,26.1,44.86,124.82-6.2,244.79-4.49,10.56-3.62,22.34,2.23,32.36,2.96,5.07,5.88,10.15,8.74,15.21,87.32-171.36,105.98-320.82,36.69-356.62-51.17-26.44-138.37,15.32-229.7,100.72-23.39,21.73-34.79,32.56-56.75,58.2,0,0,0,0,0,0Zm251.16,252.96c-5.49-10.09-30.28-55.55-36.83-65.44-8.25-12.44-78.19-101.82-200.62-42.53-61.91,29.98-45.37,99.58-35.92,106.09,0,0,.01,0,.02,0,10.88,17.25,31.53,28.9,55.25,28.9,21.31,0,40.16-9.42,51.65-23.85-5.41,9.99-14.46,19.25-28.82,26.34-72.91,35.99-147.76,6.92-189.47-76.34-6.67-13.31-11.72-23.35-18.93-39.54-24.77-55.56-90.88-217.86-12.86-259.92,55.58-29.96,125.17,29.58,163.63,58.76,8.14-7.57,15.83-15.34,23.54-24.14C225.18,67.64,118.47-30.24,43.23,9.29c-101.87,53.53,3.95,286.53,36.56,354.96,4.75,9.96,5.85,12.03,10.73,22.08,51.92,106.9,151.41,117.12,216.24,82.95,8.85-4.67,66.18-43.41,35.58-100.44-9.38-20.83-32.17-35.55-58.82-35.55-15.68,0-30.02,5.1-41.09,13.54,5.79-7.09,15.36-14.19,31.44-21.37,57.89-25.85,132.76-10.22,166.47,42.31,6.33,9.86,38.12,73.03,43.11,83.09,57.65,127.31,66.23,233.96,13.42,261.24-37.62,19.44-98.65-5.42-164.77-60.48-7.8,8.27-15.63,16.27-23.47,24.01,91.32,85.4,178.52,127.15,229.69,100.72,69.29-35.79,50.62-185.26-36.69-356.61Zm-188.48-238.96c23.03,24.73,46.66,54.74,60.9,73.28,8.77,11.42,20.74,20.58,34.7,26.58l25.59,11.01c-46.29-81.9-97.63-133.46-97.63-133.46-14.31,9.41-23.56,22.59-23.56,22.59Z"/>
      <ellipse class="cls-1" cx="283.53" cy="390.08" rx="63.41" ry="61.3"/>
    </g>
  </g>
</svg>