<?xml version="1.0" encoding="UTF-8"?>
<svg id="Capa_2" data-name="Capa 2" xmlns="http://www.w3.org/2000/svg" viewBox="0 0 265.1 235.3">
  <defs>
    <style>
      .cls-1 {
        fill: #e02a35;
        stroke-width: 0px;
      }
    </style>
  </defs>
  <g id="Capa_1-2" data-name="Capa 1">
    <g>
      <path class="cls-1" d="m136.05,235.28c-34.56,0-69.11-.02-103.67.02-6.51,0-12.65-1.42-18.24-4.7C5.09,225.28.06,217.5.06,206.73.08,149.1.19,91.46,0,33.83-.06,16.87,14.69-.15,33.61,0c65.49.52,130.98.2,196.48.2,19.3,0,35.01,15.64,35.01,34.84,0,57.13.01,114.27-.03,171.4,0,2.98-.22,5.99-.69,8.93-2.01,12.62-10.4,19.85-23.17,19.88-26.32.06-52.64.02-78.97.02-8.73,0-17.46,0-26.2,0Zm-16.45-127.8c14.29,15.51,28.36,30.77,42.5,46.12,13.02-10.97,25.75-21.71,38.53-32.47,16.57,13.65,32.77,27,49.42,40.71.12-1.43.23-2.15.23-2.86,0-41.54.04-83.07-.02-124.61-.01-10.41-9.21-19.35-19.77-19.35-66.11-.02-132.22,0-198.32-.05-4.73,0-8.47,1.77-11.61,5.06-4.09,4.26-5.73,9.37-5.72,15.31.09,47.02.05,94.05.06,141.07,0,1.17.13,2.33.22,3.8,35.03-24.38,69.66-48.48,104.5-72.73Zm-2.25,17.91c-1.04.66-1.79,1.1-2.5,1.6-30.9,21.51-61.67,43.2-92.81,64.36-5.71,3.88-7.89,7.88-7.29,14.53.61,6.78,2.97,11.06,9.49,13.2,2.9.95,6.1,1.37,9.16,1.37,68.61.07,137.21.07,205.82.04,8.28,0,10.76-2.32,10.94-10.61.21-9.35.18-18.71.03-28.06-.02-1.36-.96-3.07-2.02-3.98-5.86-5.04-11.9-9.88-17.86-14.79-9.8-8.07-19.6-16.14-29.57-24.36-13.4,11.31-26.62,22.47-40.03,33.78-14.49-15.74-28.83-31.31-43.35-47.09Z"/>
      <path class="cls-1" d="m179.76,94.77c-14.89-.02-26.9-11.94-26.95-26.75-.05-14.94,12.13-27.13,27.07-27.1,14.98.04,26.99,12.19,26.9,27.21-.09,14.85-12.06,26.66-27.01,26.64Zm12.22-26.75c.07-6.68-5.29-12.23-11.94-12.36-6.65-.13-12.24,5.24-12.37,11.91-.14,6.9,5.29,12.53,12.1,12.56,6.63.03,12.14-5.43,12.21-12.11Z"/>
    </g>
  </g>
</svg>